<svg xmlns="http://www.w3.org/2000/svg" viewBox="0 0 1400 820" width="100%">
  <style>.bg{fill:#292d3e}.node{fill:#2e3142;stroke:#4a4a4a;stroke-width:1;rx:8;ry:8}
  .node text{fill:#e6e9ff;font:600 14px Trebuchet MS,Verdana,Arial}.title{fill:#e6e9ff;font:700 18px Trebuchet MS}
  .edge{stroke:#babed8;stroke-width:2;fill:none}.label{fill:#babed8;font:12px Trebuchet MS}</style>
  <defs><marker id="a" viewBox="0 0 10 10" refX="8" refY="5" markerWidth="12" markerHeight="12" orient="auto"><path d="M0 0 10 5 0 10Z" fill="#babed8"/></marker></defs>
  <rect class="bg" width="1400" height="820"/>
  <text x="700" y="30" text-anchor="middle" class="title">iikoChain MVP — Потоки</text>
  <g class="node" transform="translate(80,100)"><rect width="320" height="48"/><text x="160" y="30" text-anchor="middle">Орг. структура</text></g>
  <g class="node" transform="translate(80,200)"><rect width="320" height="48"/><text x="160" y="30" text-anchor="middle">Меню</text></g>
  <g class="node" transform="translate(80,280)"><rect width="320" height="48"/><text x="160" y="30" text-anchor="middle">Зоны цен/Прайс-листы</text></g>
  <g class="node" transform="translate(460,200)"><rect width="280" height="48"/><text x="140" y="30" text-anchor="middle">Публикации</text></g>
  <g class="node" transform="translate(820,200)"><rect width="320" height="48"/><text x="160" y="30" text-anchor="middle">Шина публикаций</text></g>
  <g class="node" transform="translate(1160,200)"><rect width="160" height="48"/><text x="80" y="30" text-anchor="middle">Точки</text></g>
  <g class="node" transform="translate(820,300)"><rect width="320" height="48"/><text x="160" y="30" text-anchor="middle">Вебхук статусов</text></g>
  <g class="node" transform="translate(460,380)"><rect width="280" height="48"/><text x="140" y="30" text-anchor="middle">Отчёты (продажи/остатки)</text></g>
  <g class="node" transform="translate(460,100)"><rect width="280" height="48"/><text x="140" y="30" text-anchor="middle">Безопасность</text></g>
  <path class="edge" marker-end="url(#a)" d="M240 228 C360 228 460 228 460 228"/><text class="label" x="360" y="220">меню</text>
  <path class="edge" marker-end="url(#a)" d="M240 308 C360 308 460 308 460 308"/><text class="label" x="360" y="300">цены</text>
  <path class="edge" marker-end="url(#a)" d="M740 228 C800 228 820 228 820 228"/><text class="label" x="780" y="220">dispatch</text>
  <path class="edge" marker-end="url(#a)" d="M1140 228 C1120 260 1000 300 820 324"/><text class="label" x="980" y="320">webhook</text>
  <path class="edge" marker-end="url(#a)" d="M820 324 C740 360 640 380 540 396"/>
</svg>

